<svg xmlns="http://www.w3.org/2000/svg" viewBox="0 0 100 100"><rect width="100" height="100" rx="22" fill="#ede9fe"/><circle cx="18" cy="18" r="5.5" fill="#fb7185"/><circle cx="34" cy="18" r="5.5" fill="#fbbf24"/><circle cx="50" cy="18" r="5.5" fill="#34d399"/><circle cx="66" cy="18" r="5.5" fill="#38bdf8"/><circle cx="82" cy="18" r="5.5" fill="#a78bfa"/><circle cx="18" cy="34" r="5.5" fill="#fb7185"/><circle cx="34" cy="34" r="5.5" fill="#fbbf24"/><circle cx="50" cy="34" r="5.5" fill="#34d399"/><circle cx="66" cy="34" r="5.5" fill="#38bdf8"/><circle cx="82" cy="34" r="5.5" fill="#a78bfa"/><circle cx="18" cy="50" r="5.5" fill="#fb7185"/><circle cx="34" cy="50" r="5.5" fill="#fbbf24"/><circle cx="50" cy="50" r="5.5" fill="#34d399"/><circle cx="66" cy="50" r="5.5" fill="#38bdf8"/><circle cx="82" cy="50" r="5.5" fill="#a78bfa"/><circle cx="18" cy="66" r="5.5" fill="#fb7185"/><circle cx="34" cy="66" r="5.5" fill="#fbbf24"/><circle cx="50" cy="66" r="5.5" fill="#34d399"/><circle cx="66" cy="66" r="5.5" fill="#38bdf8"/><circle cx="82" cy="66" r="5.5" fill="#a78bfa"/><circle cx="18" cy="82" r="5.5" fill="#fb7185"/><circle cx="34" cy="82" r="5.5" fill="#fbbf24"/><circle cx="50" cy="82" r="5.5" fill="#34d399"/><circle cx="66" cy="82" r="5.5" fill="#38bdf8"/><circle cx="82" cy="82" r="5.5" fill="#a78bfa"/></svg>